<svg version="1" xmlns="http://www.w3.org/2000/svg" width="3225.333" height="3225.333" viewBox="0 0 2419.000000 2419.000000"><path d="M247.5 853.1c-2.7.3-5.7.9-6.6 1.3-1.4.6-7.9 11.2-16.2 26.5-1.6 3.1-4.7 8.5-6.7 12.1-2.1 3.6-5.2 9.2-7 12.5-1.8 3.3-4.2 7.6-5.3 9.5-1.1 1.9-8.4 15-16.2 29-7.8 14-15.3 27.3-16.5 29.5-1.2 2.2-4.5 8-7.3 13-2.7 4.9-6.1 11-7.5 13.5-3.6 6.4-28.5 50.9-32 57.2-1.6 2.9-7 12.7-12.1 21.7s-10.3 18.4-11.7 21c-1.4 2.5-2.9 5.3-3.5 6.1-.9 1.5-4.7 8.3-30.4 54.5-4 7.1-8.2 14.8-9.5 17-3.7 6.4-5.5 9.7-23.5 42-7 12.6-15.4 27.6-18.7 33.3-3.2 5.7-5.8 10.5-5.8 10.6 0 .2-2.4 4.3-5.2 9.2l-5.3 8.9-.3 136c-.2 94.5 0 137.1.8 139.7.6 2.2 2.3 4.6 4.1 5.9l3.1 2.2h313.2c216.1 0 313.8-.3 315.2-1.1 3.1-1.7 5.9-5.2 9.9-12.7 2.1-3.9 5.7-10.4 8-14.5 6.4-11.4 7.5-13.2 25.5-45.5 9.2-16.5 17.7-31.8 19-34 1.3-2.2 6.7-11.9 12-21.5 11.1-19.9 10.7-19.2 28.8-51.5 22.4-40.1 29.4-52.5 29.6-52.5.2 0 .3 50.3.3 111.8 0 121.4-.3 115.2 5.5 119.5 2.6 1.9 5.5 2 310.5 1.9 169.3-.1 310.6-.1 314-.1 5.4-.1 6.7-.5 9.2-2.9 1.6-1.5 4.2-5 5.7-7.7 3-5.7 15.1-27.2 18.1-32.5 1.1-1.9 3.5-6.2 5.3-9.5 1.8-3.3 4-7.4 5-9 1-1.7 2.9-5 4.2-7.5 1.4-2.5 5.8-10.4 9.8-17.5l10-18c1.5-2.8 6-10.9 10-18 4-7.2 8.4-15 9.8-17.5 1.4-2.5 7.6-13.5 13.7-24.5 6.2-11 13.5-24.1 16.2-29 2.8-5 6.3-11.3 7.9-14 1.5-2.8 5.4-9.7 8.6-15.5l5.8-10.5v4.5c.1 2.5.2 52.6.2 111.5 0 76.9.4 108 1.2 110.5.7 2.1 2.3 4.1 4.4 5.3 3.3 1.9 8.7 2 316.1 2 304.4 0 312.9-.1 316-1.9 1.9-1.1 4.6-4.4 6.5-7.9 1.9-3.3 4.7-8.3 6.2-11 1.6-2.8 4-7.1 5.4-9.6 1.4-2.6 5.2-9.6 8.5-15.5 3.3-6 6.2-11.4 6.4-11.9.2-.6.7-1.2 1.1-1.5.5-.3 1.8-2.6 3.1-5.2s5.4-10 9-16.5c6.7-11.9 29.6-53 51.4-91.8 6.5-11.6 15-26.9 19-34 11.6-20.8 12.6-22.6 16.8-30 2.2-3.9 5.4-9.7 7.2-13 1.8-3.3 5.8-10.4 8.9-15.9 3.1-5.4 5.6-10 5.6-10.2 0-.3 1-2.1 2.3-4.2 1.3-2 3.9-6.6 5.9-10.2 1.9-3.6 7.6-13.7 12.5-22.5s10.5-18.7 12.3-22c1.8-3.3 4-7.4 5-9 1.5-2.5 19.8-35.3 32.7-58.5 1.7-3 5.6-10 8.7-15.4 3.1-5.5 5.9-11.1 6.3-12.5.3-1.4.6-63.8.6-138.7 0-132.3 0-136.2-1.9-138.7-1-1.4-3.1-3.1-4.6-3.8-2.1-.8-80-1.1-315.9-1.1-309.6 0-313.2 0-315.8 1.9-2.2 1.7-8.6 12.2-21 34.8-1.5 2.7-8.3 14.9-15.1 27-6.8 12.1-13.3 23.9-14.6 26.2-5.7 10.2-7.7 13.9-18.9 33.8-6.5 11.5-14 25-16.8 30-2.7 4.9-6.6 11.9-8.7 15.5-2 3.6-5.4 9.6-7.5 13.5-2.1 3.8-4.8 8.7-5.9 10.7-1.2 2-6.6 11.8-12.1 21.7-5.5 9.8-10.2 17.7-10.4 17.5-.2-.2-.4-50.6-.3-112.1 0-120.9.3-115.1-5.4-118.8-2.5-1.6-18.6-1.7-316-1.7-304.1 0-313.4 0-316.4 1.8-2 1.2-4.5 4.4-6.7 8.4-1.9 3.6-4.5 8.3-5.8 10.5-1.2 2.2-3.5 6.2-5 9-4.6 8.3-40.4 72.5-44.6 79.8-2.2 3.8-3.9 7.1-3.9 7.3 0 .2-1.1 2.1-2.3 4.2-1.3 2-4 6.6-5.9 10.2-2 3.6-5.5 9.9-7.9 14-2.3 4.1-5.3 9.5-6.6 12-1.4 2.5-3 5.4-3.6 6.5-1.2 1.9-5.6 9.9-11.1 19.7-1.4 2.7-3.8 6.9-5.3 9.5-1.4 2.7-3.5 6.4-4.6 8.3-10.3 18.5-18 32-18.2 32-.2 0-.3-50.6-.3-112.5 0-123.3.4-115.1-5.7-119.1-2.3-1.5-28.1-1.6-311.7-1.8-170.1 0-311.5.2-314.3.5z"/></svg>