<?xml version="1.0" encoding="utf-8"?>
<!-- Generator: Adobe Illustrator 19.2.1, SVG Export Plug-In . SVG Version: 6.00 Build 0)  -->
<svg version="1.1" id="Слой_1" xmlns="http://www.w3.org/2000/svg" xmlns:xlink="http://www.w3.org/1999/xlink" x="0px" y="0px"
	 viewBox="0 0 47.5 47.5" style="enable-background:new 0 0 47.5 47.5;" xml:space="preserve">
<style type="text/css">
	.st0{clip-path:url(#SVGID_2_);fill:#FFFFFF;}
</style>
<g>
	<defs>
		<rect id="SVGID_1_" y="0" width="47.5" height="47.5"/>
	</defs>
	<clipPath id="SVGID_2_">
		<use xlink:href="#SVGID_1_"  style="overflow:visible;"/>
	</clipPath>
	<path class="st0" d="M47.5,23.8c0,13.1-10.6,23.8-23.8,23.8C10.6,47.5,0,36.9,0,23.8C0,10.6,10.6,0,23.8,0
		C36.9,0,47.5,10.6,47.5,23.8 M19.8,38.6H26V23.8h4.2l0.5-5.2H26v-3.1c0-1.2,0.8-1.4,1.3-1.4h3.3V8.9l-4.6,0c-5.1,0-6.2,3.8-6.2,6.2
		v3.4h-2.9v5.2h2.9V38.6z"/>
</g>
</svg>
