<?xml version="1.0" encoding="utf-8"?>
<!-- Generator: Adobe Illustrator 19.2.1, SVG Export Plug-In . SVG Version: 6.00 Build 0)  -->
<svg version="1.1" id="Слой_1" xmlns="http://www.w3.org/2000/svg" xmlns:xlink="http://www.w3.org/1999/xlink" x="0px" y="0px"
	 viewBox="0 0 503.9 503.9" style="enable-background:new 0 0 503.9 503.9;" xml:space="preserve">
<style type="text/css">
	.st0{fill:#FFFFFF;}
</style>
<g>
	<path class="st0" d="M232.5,0.8c53.4-4.4,108,9.5,153.1,38.4c13.5,8.5,26.1,18.4,37.8,29.3c2.5,2.5,5.1,4.9,8.1,6.9
		c2.8,1.9,3.9,5.3,6.3,7.7c29.1,31.8,50,71,59.7,113c10.6,45.5,8,94-7.6,138c-11.3,32.1-29.2,61.7-52.1,86.8
		c-2.2,2.2-3.4,5.2-5.8,7.3c-6.8,4.7-12.2,11.1-18.7,16.2c-33.6,28.4-74.8,48.1-118.2,55.8c-49.2,8.9-101.1,2.1-146.5-18.9
		c-23.2-10.7-44.8-24.9-63.9-42c-2.3-2.4-5.3-4.1-7.9-6.1c-2.4-2.7-4.2-5.9-6.9-8.3c-31-32.5-53.4-73.2-63.5-117
		c-11.7-49.7-7.3-103.1,12.3-150.2c10.7-26,25.9-50.3,44.5-71.4C67,81.7,71.6,77.9,75,73c2-3,5.6-4.3,8.1-6.9
		C123.9,28.7,177.2,5,232.5,0.8 M202.9,29.1c-37.4,7.8-72.7,25.3-101.4,50.4c20.3,20.2,40.5,40.5,60.7,60.7
		c25.4-20.6,57.9-32.8,90.7-32.4c34.7,0.1,68.6,14.1,94.3,37.1c20.2-20.2,40.4-40.4,60.6-60.6c-10.5-9.8-22-18.6-34.3-26.2
		C323.4,26.8,260.7,16.8,202.9,29.1 M25.6,224.1C21.6,258.5,25,294,36.2,326.9c10.1,30,26.7,57.9,48.3,81
		c20.1-20.3,40.4-40.4,60.6-60.6c-24-26.6-38.1-62.3-37.1-98.3c0.6-33.9,14.4-67,36.9-92.1c-20.2-20.2-40.4-40.4-60.7-60.6
		C51.8,131.2,31,176.7,25.6,224.1 M424.5,101.8c-20.1,20.4-40.6,40.4-60.7,60.9c23,28,35,65,31.6,101.2c-2.4,28.4-14,55.7-31.9,77.7
		c20.2,20.3,40.5,40.5,60.7,60.8c36.6-41.6,56.3-97.1,55.6-152.4C479.7,196.2,460.1,142.3,424.5,101.8 M245.1,132.1
		c-26.3,1.4-52.6,11-72.3,28.7c-3,4.7-8.4,6.9-11.6,11.4c-20.6,23.3-30.7,54.9-29.1,85.8c1.1,28.6,12.5,56.8,32.4,77.4
		c2.1,2,4.8,3.1,6.5,5.5c2.3,3.4,5.7,5.7,9,8.1c23.1,17,52.4,24.7,80.9,22.6c27.3-1.7,54.1-12.9,74-31.8c2-2,3.1-4.8,5.4-6.5
		c4.9-3.4,8-8.7,11.4-13.4c29.5-43.6,26.6-106.7-8.1-146.6c-3.1-2.3-5.7-5-7.8-8.3C312.2,141.7,278.1,130.2,245.1,132.1
		 M240.8,395.5c-28.5-2.3-56.1-13.6-78.2-31.7c-20.4,20.1-40.6,40.5-60.9,60.8c17,14.7,36.2,26.9,56.7,35.9
		c45.6,20.2,97.8,24.6,146.4,13.4c38.2-8.7,74-27.6,102.8-54.3c-20.2-20.2-40.5-40.4-60.7-60.7C318.4,384.7,279.3,398.9,240.8,395.5
		"/>
</g>
</svg>
