<svg xmlns="http://www.w3.org/2000/svg" xmlns:xlink="http://www.w3.org/1999/xlink" width="222" height="222" viewBox="0 0 222 222">
  <metadata><?xpacket begin="﻿" id="W5M0MpCehiHzreSzNTczkc9d"?>
<x:xmpmeta xmlns:x="adobe:ns:meta/" x:xmptk="Adobe XMP Core 5.6-c138 79.159824, 2016/09/14-01:09:01        ">
   <rdf:RDF xmlns:rdf="http://www.w3.org/1999/02/22-rdf-syntax-ns#">
      <rdf:Description rdf:about=""/>
   </rdf:RDF>
</x:xmpmeta>
                                                                                                    
                                                                                                    
                                                                                                    
                                                                                                    
                                                                                                    
                                                                                                    
                                                                                                    
                                                                                                    
                                                                                                    
                                                                                                    
                                                                                                    
                                                                                                    
                                                                                                    
                                                                                                    
                                                                                                    
                                                                                                    
                                                                                                    
                                                                                                    
                                                                                                    
                                                                                                    
                           
<?xpacket end="w"?></metadata>
<defs>
    <style>
      .cls-1 {
        fill: #f5f5f5;
      }

      .cls-2 {
        fill-rule: evenodd;
        fill: url(#linear-gradient);
      }
    </style>
    <linearGradient id="linear-gradient" x1="111" y1="175.813" x2="111" y2="57.438" gradientUnits="userSpaceOnUse">
      <stop offset="0" stop-color="#453693"/>
      <stop offset="1" stop-color="#c448d3"/>
    </linearGradient>
  </defs>
  <circle id="Эллипс_2" data-name="Эллипс 2" class="cls-1" cx="111" cy="111" r="111"/>
  <path id="Фигура_7" data-name="Фигура 7" class="cls-2" d="M160.277,57.8a5.359,5.359,0,0,1,4.067,5.217q0.019,36.133,0,72.267a28,28,0,0,1-16.973,24.776q-14.985,6.708-29.973,13.408a42.409,42.409,0,0,1-5.725,2.351h-1.27a8.29,8.29,0,0,1-1.632-.5Q91.535,167.613,74.293,159.9A28.121,28.121,0,0,1,57.862,137.85a37.627,37.627,0,0,1-.175-4.839V64.017a8.788,8.788,0,0,1,.238-2.609A5.422,5.422,0,0,1,60.9,58.082a16.839,16.839,0,0,1,2.552-.659m4.91,9.91q-0.007,31.458,0,62.912c0.06,2.812-.2,5.657.332,8.44a14.388,14.388,0,0,0,4.872,8.394c2.215,1.944,5.015,2.944,7.647,4.157q9.086,4.048,18.166,8.123c3.883,1.7,7.717,3.527,11.635,5.147a27.306,27.306,0,0,0,2.674-1.131q15.213-6.813,30.426-13.609a16.475,16.475,0,0,0,6.682-5.161,15.912,15.912,0,0,0,2.885-9.579q0-33.851-.008-67.7M103.005,124.1c9.792-9.853,19.55-19.744,29.377-29.563,2.489,2.541,5.012,5.052,7.514,7.582q-18.459,18.608-36.928,37.2c-6.947-6.98-13.863-13.991-20.825-20.959q3.772-3.819,7.559-7.617C94.129,115.2,98.521,119.7,103.005,124.1Z"/>
</svg>
