<?xml version="1.0" encoding="utf-8"?>
<!-- Generator: Adobe Illustrator 19.2.1, SVG Export Plug-In . SVG Version: 6.00 Build 0)  -->
<svg version="1.1" id="Слой_1" xmlns="http://www.w3.org/2000/svg" xmlns:xlink="http://www.w3.org/1999/xlink" x="0px" y="0px"
	 viewBox="0 0 469.1 511.8" style="enable-background:new 0 0 469.1 511.8;" xml:space="preserve">
<style type="text/css">
	.st0{fill:#FFFFFF;}
</style>
<g>
	<path class="st0" d="M233,0h3c3.6,0.7,6.4,3.2,9.3,5.2c18.3,12.9,36.9,25.6,56.2,36.9c30.3,17.8,63.1,32.4,98.1,37.5
		c19.5,3.2,39.3,2.1,59,2.3c5.5-0.2,10.5,4.6,10.4,10.1c0.1,22,0.2,44.1-1,66.1c-2.4,46.2-9.6,92.3-24.3,136.2
		c-12.8,38-31.2,74.3-55.9,106c-36.5,47.6-86.6,83.9-141.5,107.5c-4.6,1.9-9.5,5.4-14.7,3.4c-18-7.5-35.6-15.9-52.4-25.9
		c-47.6-27.6-88.6-66.7-117.4-113.5c-26-41.7-42.5-88.8-51.6-136.9C1,187.6-0.6,139.2,0.1,91.1c0.3-5.2,5.2-9.5,10.3-9.2
		c11.7-0.1,23.4,0.1,35.1-0.1c17.6-0.5,35-3.4,51.9-8.3c45.1-13.1,84.7-39.3,122.8-65.9C224.4,5,228.1,1.3,233,0 M226.7,28.2
		C192.2,52.1,156.3,75,116.4,88.9c-23.4,8.2-48.2,12.9-73,13.4c-8,0.2-16-0.1-24,0.1c-0.1,19.2,0,38.4,1.1,57.5
		c2.8,52.9,12.2,106.1,33.1,155c12.1,28.4,28.1,55.2,47.8,79c19.5,23.6,42.5,44.2,67.8,61.2c20.5,14,42.6,25.4,65.3,35.2
		c28.2-12.2,55.5-26.9,79.9-45.7c26-19.4,48.8-42.9,67.4-69.4c24.5-34.6,41.5-74.2,52-115.2c13.4-51.4,16.2-104.9,15.7-157.8
		c-16.9,0-33.8,0.3-50.5-2.2c-22.9-3.2-45.3-9.9-66.5-19.2c-32.5-14.1-62.4-33.5-91.4-53.7c-2.2-1.5-4.2-3.2-6.6-4.4
		C231.7,24.4,229.3,26.5,226.7,28.2"/>
	<path class="st0" d="M350.1,166.7c4.9,4.8,9.8,9.7,14.6,14.6c-51.4,51.2-102.8,102.5-154.3,153.7c-3.8,4-10.9,4-14.6-0.2
		c-23.6-23.5-47.3-47.1-70.9-70.7c4.8-4.8,9.7-9.7,14.5-14.5c21.4,21.1,42.5,42.5,63.9,63.6C252.3,264.2,301.3,215.6,350.1,166.7"/>
</g>
</svg>
