<?xml version="1.0" encoding="utf-8"?>
<!-- Generator: Adobe Illustrator 19.2.1, SVG Export Plug-In . SVG Version: 6.00 Build 0)  -->
<svg version="1.1" id="Слой_1" xmlns="http://www.w3.org/2000/svg" xmlns:xlink="http://www.w3.org/1999/xlink" x="0px" y="0px"
	 viewBox="0 0 360.7 198.7" style="enable-background:new 0 0 360.7 198.7;" xml:space="preserve">
<style type="text/css">
	.st0{fill:#FFFFFF;}
</style>
<g>
	<path class="st0" d="M59.8,0.7C62-1,64.6,0.8,66.5,2.1c15.9,11.2,32.2,21.7,47.9,33.2c44,0.1,88.1,0.1,132.1,0
		c15.4-11.4,31.7-21.7,47.4-32.7c1.9-1.2,3.9-3.2,6.4-2.2c2.3,1.4,3.4,4,4.9,6.1c18.2,27.1,36.5,54.2,54.7,81.3
		c1.5,1.8,0.9,4.7-1,5.8c-15.6,10.8-31.4,21.3-47,32.1c-1.6,1.1-3.6,2.2-5.5,1.4c-1.4-0.8-2.3-2.3-3.2-3.5c-3-4.6-6.1-9.1-9.1-13.6
		c-3.2,1.3-5.3,3.9-6.4,7.1c4.6,2.8,8.2,7.7,8.2,13.3c0.2,5.7-3.9,10.1-6.6,14.7c-2.8,4.8-8.4,7.5-13.8,6.9
		c-3.6-0.3-6.6-2.3-9.5-4.3c-0.9,5-4.2,9.1-6.8,13.3c-3,4.9-9.1,7.5-14.8,6.4c-3.2-0.4-5.9-2.4-8.5-4.1c-0.9,5.1-4.3,9.2-6.9,13.5
		c-2.8,4.5-8.4,6.9-13.6,6.2c-3.5-0.3-6.5-2.3-9.3-4.2c-0.8,5.1-4.2,9.1-6.8,13.3c-2.8,4.6-8.4,7.2-13.7,6.4c-5-0.5-8.8-4.1-13-6.4
		c-4,5-10.7,7.8-17.1,6.4c-7.5-1.7-14.3-7.7-15.6-15.5c-10.5,2.7-22.2-4.9-24-15.5c-10.4,2.7-22.2-4.8-24.1-15.4
		c-9.5,2.4-20.1-3.6-23.1-12.8c-2.3-7.3,1.1-15.2,6.8-20.1c-1.2-2.4-2.1-4.9-3.6-7.1c-1.6-1.2-3.3-2-5.1-2.9
		c-3.2,4.9-6.5,9.7-9.7,14.6c-1,1.3-1.8,3-3.6,3.4c-1.9,0.4-3.6-0.8-5.1-1.8c-15.2-10.5-30.6-20.8-45.8-31.3c-1.7-1-2.9-2.9-2.4-4.9
		c1.1-2.3,2.6-4.2,4-6.3c17.1-25.2,34-50.6,51.1-75.8C56.7,4.9,57.9,2.6,59.8,0.7 M9.7,89.2c13.9,9.4,27.7,18.9,41.7,28.3
		C69.3,91,87,64.5,104.8,38.1C90.9,28.7,77,19.2,63.2,9.8C45.4,36.2,27.6,62.7,9.7,89.2 M256,38.1c17.8,26.4,35.6,52.9,53.4,79.3
		c13.9-9.4,27.8-18.8,41.6-28.3c-17.8-26.4-35.6-52.9-53.5-79.3C283.7,19.2,269.9,28.7,256,38.1 M111.4,42.3
		C98,61.9,85,81.8,71.7,101.5c2.3,1.4,5.1,2.4,7,4.4c1.8,2.8,3,6,4.4,9c8.1-1.1,16.3,3.4,20.4,10.3c4.3-5.3,11.6-7.7,18.1-5.8
		c5.8,1.8,11,5.8,13.4,11.5c11-8.3,28.8,0.7,29.4,14.2c0.6,5.9-2.8,11-6.1,15.5c6.6,0.6,13,4.2,16.5,10c2.4,3.9,2.7,8.7,1.9,13.1
		c3.6,1.8,6.6,5.1,10.7,5.7c5.1,0.1,6.8-5.5,9.3-8.9c2-2.6,2-6.8-0.6-9c-4.2-3.3-9-5.6-13.3-8.7c-2.3-1.4-2.5-5.1-0.1-6.5
		c1.6-1.3,3.8-0.9,5.4,0.2c8.1,5.2,16.3,10.3,24.4,15.5c2,1.3,4.5,2.6,7,1.7c2.8-0.9,4-3.8,5.6-6c1.5-2.5,3.8-5.1,3-8.2
		c-0.6-3.3-3.9-4.7-6.4-6.4c-7.7-4.9-15.6-9.7-23.2-14.8c-2.5-1.5-2.3-5.6,0.4-6.8c1.8-1.1,3.8-0.1,5.4,0.9
		c11.4,7.3,22.8,14.5,34.2,21.8c2.4,1.5,4.6,3.2,7.2,4.3c2.4,0.7,5.3-0.3,6.8-2.4c1.8-2.6,3.6-5.3,5.1-8.2c1.6-2.9,0.2-6.6-2.6-8.1
		c-13.5-8.6-27-17.1-40.5-25.7c-2.2-1.2-2.6-4.3-1-6.1c1.4-1.7,4-1.8,5.7-0.5c18.1,11.5,36.2,23,54.4,34.4c2.6,2,6.8,1.7,8.8-1.1
		c1.9-2.5,3.5-5.2,5.1-7.9c1.9-3.4,0-7.8-3.1-9.6c-14.7-9.3-29.6-18.4-44.3-27.8c-1.1-0.6-2.1-1.5-3.4-1.4c-9-0.1-18,0-27,0
		c-7.7,0-15.7-1.5-22-6.2c-5.4-3.8-8.7-10-9.8-16.4c-9.4,0-18.8,0-28.1,0c0.1,6,1,12.7-2.9,17.7c-2.9,4.4-8,6.3-13,7.3
		c-5.2,1.3-10.3,2.7-15.5,3.9c-2.7,0.7-5.1-1.9-4.7-4.5c0-12.1,0-24.1,0-36.1c-0.2-1.8,0.7-3.6,2.3-4.4c7.3-4.5,14.8-8.8,22.2-13.4
		C129.1,42.4,120.3,42.5,111.4,42.3 M151.8,44.6c-10.1,6-20.1,12.1-30.2,18c-0.2,9.9,0,19.9-0.1,29.8c5.2-1.5,10.7-2.4,15.8-4.3
		c5.5-2.8,3.9-9.8,4.1-14.8c0-3-0.9-8,3.2-8.7c12-0.3,24-0.1,35.9-0.1c2.4-0.4,5,1.2,4.9,3.8c0.3,4.2,1.1,8.7,4.1,11.9
		c5.2,5.7,13.5,7,20.8,6.9c9.4-0.1,18.8,0,28.1,0c2.5-0.2,4.1,1.9,6.1,3.1c12.1,7.6,24.2,15.2,36.4,22.7c0.7-1.5,1.4-3.1,2.3-4.6
		c1.1-2.7,4.3-3.5,6.6-5c-13.4-19.9-26.7-39.9-40.2-59.8c-29.7,0.1-59.5,0-89.2,0C157.6,43.6,154.3,42.7,151.8,44.6 M82.7,124.6
		c-3.3,1.2-5.4,4.4-6.4,7.6c-2.1,8.2,9,15.4,15.7,10.7c2-1.8,3.4-4.2,4.4-6.6C98.2,128.9,89.5,122.3,82.7,124.6 M113.8,128.7
		c-3.1,1-4.8,4-6.4,6.5c-2.5,3.9-5.1,7.8-7,12c-2.5,8.3,9,15.8,15.7,10.8c2.9-2.3,4.4-5.8,6.4-8.8c1.8-3,4.1-5.7,5.1-9
		C129.3,132.8,120.5,126.5,113.8,128.7 M140.8,137.7c-3.1,1.5-4.4,4.8-6.3,7.5c-3.3,5.4-7,10.5-10,16.1c-3.5,8.1,7.2,16.4,14.5,12.5
		c2.9-1.4,4.2-4.6,5.9-7.2c3.4-5.6,7.3-10.9,10.4-16.6C158.7,142,148,134,140.8,137.7 M153.7,170.7c-4.8,2.6-7.5,9.6-4.2,14.3
		c2.6,3.2,6.7,5.8,11,5.1c4.7-0.7,7.9-5.4,8.1-9.9C168.9,173.1,160.1,167.5,153.7,170.7"/>
	<path class="st0" d="M43.7,92.6c5.6-2.6,12.2,3.4,10.3,9.2c-1.3,5.4-8.8,7.4-12.7,3.5C37.3,101.8,38.6,94.5,43.7,92.6"/>
	<path class="st0" d="M309.7,92.5c5.7-2.5,12.2,3.8,10,9.6c-1.5,5.4-9.3,7.1-12.9,2.8C302.9,101.3,304.7,94.1,309.7,92.5"/>
</g>
</svg>
