<svg xmlns="http://www.w3.org/2000/svg" xmlns:xlink="http://www.w3.org/1999/xlink" width="222" height="222" viewBox="0 0 222 222">
  <metadata><?xpacket begin="﻿" id="W5M0MpCehiHzreSzNTczkc9d"?>
<x:xmpmeta xmlns:x="adobe:ns:meta/" x:xmptk="Adobe XMP Core 5.6-c138 79.159824, 2016/09/14-01:09:01        ">
   <rdf:RDF xmlns:rdf="http://www.w3.org/1999/02/22-rdf-syntax-ns#">
      <rdf:Description rdf:about=""/>
   </rdf:RDF>
</x:xmpmeta>
                                                                                                    
                                                                                                    
                                                                                                    
                                                                                                    
                                                                                                    
                                                                                                    
                                                                                                    
                                                                                                    
                                                                                                    
                                                                                                    
                                                                                                    
                                                                                                    
                                                                                                    
                                                                                                    
                                                                                                    
                                                                                                    
                                                                                                    
                                                                                                    
                                                                                                    
                                                                                                    
                           
<?xpacket end="w"?></metadata>
<defs>
    <style>
      .cls-1 {
        fill: #f5f5f5;
      }

      .cls-2 {
        fill-rule: evenodd;
        fill: url(#linear-gradient);
      }
    </style>
    <linearGradient id="linear-gradient" x1="111" y1="173" x2="111" y2="49" gradientUnits="userSpaceOnUse">
      <stop offset="0" stop-color="#483795"/>
      <stop offset="1" stop-color="#c348d2"/>
    </linearGradient>
  </defs>
  <circle id="Эллипс_2_копия" data-name="Эллипс 2 копия" class="cls-1" cx="111" cy="111" r="111"/>
  <path id="Фигура_9" data-name="Фигура 9" class="cls-2" d="M107.572,52.152A3.457,3.457,0,0,1,110.987,49a3.508,3.508,0,0,1,3.437,3.423c0.042,1.945.012,3.893,0.017,5.839a12.97,12.97,0,0,1,7.933,6.463A12.814,12.814,0,0,1,123,75.15a31.326,31.326,0,0,0,15.349,4q13.443,0,26.885,0a3.457,3.457,0,0,1,3.4,3.54A3.555,3.555,0,0,1,165,86.021q-5.433.015-10.867,0,9.087,18.109,18.148,36.232a6.669,6.669,0,0,1,.709,1.741,24.452,24.452,0,1,1-48.891.063,7.792,7.792,0,0,1,.862-2.05q9.014-18,18.036-36.006c-2.772-.034-5.549.1-8.314-0.173a38.779,38.779,0,0,1-15.814-5.1,13.041,13.041,0,0,1-4.4,2.228q-0.008,34.4,0,68.8a23.6,23.6,0,0,1,12.217,5.792,23.192,23.192,0,0,1,6.942,11.326,3.465,3.465,0,0,1-3.317,4.115q-19.3.018-38.615,0a3.449,3.449,0,0,1-3.293-4.125,23.174,23.174,0,0,1,8.078-12.307,23.518,23.518,0,0,1,11.068-4.792q0.014-34.393-.005-68.789a13.067,13.067,0,0,1-4.431-2.236,38.447,38.447,0,0,1-15.8,5.111c-2.757.276-5.532,0.144-8.3,0.178q8.87,17.78,17.787,35.538a6.965,6.965,0,0,1,1.111,3.087,24.463,24.463,0,1,1-48.922-.483,5.377,5.377,0,0,1,.662-1.767q9.116-18.186,18.219-36.379c-3.7,0-7.4.017-11.092-.007a3.453,3.453,0,0,1-3.39-3.591,3.573,3.573,0,0,1,3.642-3.283q13.443,0,26.883,0A31.335,31.335,0,0,0,98.97,75.15a12.8,12.8,0,0,1,.735-10.611,13.093,13.093,0,0,1,7.831-6.271C107.594,56.231,107.506,54.19,107.572,52.152Zm1.566,12.841a5.932,5.932,0,1,0,5.191.7A5.953,5.953,0,0,0,109.138,64.993ZM57.993,121.148c10.3-.014,20.606.044,30.908-0.032q-7.72-15.417-15.437-30.84Q65.708,105.7,57.993,121.148Zm90.524-30.842q-7.709,15.413-15.439,30.818c10.308,0.063,20.618.005,30.925,0.029C158.83,110.877,153.737,100.557,148.517,90.306ZM56.183,128.039a17.6,17.6,0,0,0,34.511,0Q73.441,128.04,56.183,128.039Zm75.107,0a17.591,17.591,0,0,0,19.262,14,17.4,17.4,0,0,0,8.327-3.244,17.708,17.708,0,0,0,6.934-10.761H131.29ZM105.611,159.3a16.836,16.836,0,0,0-8.583,6.8c9.316,0.027,18.632,0,27.946.01a16.716,16.716,0,0,0-7.17-6.237A16.5,16.5,0,0,0,105.611,159.3Z"/>
</svg>
