<svg xmlns="http://www.w3.org/2000/svg" width="106" height="106" viewBox="0 0 106 106">
  <metadata><?xpacket begin="﻿" id="W5M0MpCehiHzreSzNTczkc9d"?>
<x:xmpmeta xmlns:x="adobe:ns:meta/" x:xmptk="Adobe XMP Core 5.6-c138 79.159824, 2016/09/14-01:09:01        ">
   <rdf:RDF xmlns:rdf="http://www.w3.org/1999/02/22-rdf-syntax-ns#">
      <rdf:Description rdf:about=""/>
   </rdf:RDF>
</x:xmpmeta>
                                                                                                    
                                                                                                    
                                                                                                    
                                                                                                    
                                                                                                    
                                                                                                    
                                                                                                    
                                                                                                    
                                                                                                    
                                                                                                    
                                                                                                    
                                                                                                    
                                                                                                    
                                                                                                    
                                                                                                    
                                                                                                    
                                                                                                    
                                                                                                    
                                                                                                    
                                                                                                    
                           
<?xpacket end="w"?></metadata>
<defs>
    <style>
      .cls-1 {
        fill: #453693;
        fill-rule: evenodd;
      }
    </style>
  </defs>
  <path id="Фигура_13" data-name="Фигура 13" class="cls-1" d="M49.8,0.33H56.34c0,2.149-.02,4.3-0.016,6.45C68.337,7.349,80.35,11.406,89.687,19.111a42.362,42.362,0,0,1,14.877,23.9,43.281,43.281,0,0,1,.774,5.52v2.416a5.425,5.425,0,0,0-.051,1.789c-2.174.012-4.349,0-6.525,0.006a6.72,6.72,0,0,0-2.216-4.892,6.513,6.513,0,0,0-10.86,4.888c-2.195.012-4.388-.012-6.583,0.008-0.02-1.785-1.355-3.194-2.732-4.153a16.366,16.366,0,0,0-10.885-2.277,13.361,13.361,0,0,0-7.568,3.139,4.253,4.253,0,0,0-1.58,3.068q0.024,21.5.01,43.01a3.068,3.068,0,0,0,3.436,3.036,3.164,3.164,0,0,0,2.71-3.043c2.175,0,4.351,0,6.526,0a9.688,9.688,0,0,1-8.964,9.611H58.841a9.713,9.713,0,0,1-8.361-6.068A10.248,10.248,0,0,1,49.8,94.9q0.015-20.266.006-40.529a5.979,5.979,0,0,0-1.551-4.645,13.477,13.477,0,0,0-8.526-3.48,16.133,16.133,0,0,0-10.237,2.371A5.473,5.473,0,0,0,26.8,52.736c-2.2,0-4.4.01-6.6-.006A6.515,6.515,0,0,0,7.754,50a7.626,7.626,0,0,0-.617,2.725c-2.146.023-4.292,0-6.438,0.006V51c0.061-.647.121-1.294,0.145-1.945A39.622,39.622,0,0,1,6.091,31.326c5.134-8.96,13.519-15.783,22.943-19.813A60.82,60.82,0,0,1,49.818,6.754C49.78,4.612,49.812,2.471,49.8.33ZM35.365,21.94a36.268,36.268,0,0,0-8.432,20.524,22.679,22.679,0,0,1,11.588-2.83,22.319,22.319,0,0,1,11.351,3.046c0.065-9.68.21-19.361,0.114-29.041A24.212,24.212,0,0,0,35.365,21.94ZM56.4,42.45a22.407,22.407,0,0,1,10.311-2.8,22.846,22.846,0,0,1,12.213,2.794,36.6,36.6,0,0,0-7.5-19.4A24.8,24.8,0,0,0,56.546,13.74C56.681,23.31,56.522,32.88,56.4,42.45Zm19.37-24.39a42.839,42.839,0,0,1,9.622,23.5,13,13,0,0,1,11.756-.954,35.787,35.787,0,0,0-8.069-13.14A44.124,44.124,0,0,0,75.77,18.059ZM22.96,22.415A37.477,37.477,0,0,0,9.1,40.462,13.146,13.146,0,0,1,20.47,41.53,42.662,42.662,0,0,1,29.9,18.317,46.4,46.4,0,0,0,22.96,22.415Z"/>
</svg>
