<svg xmlns="http://www.w3.org/2000/svg" width="95" height="118" viewBox="0 0 95 118">
  <metadata><?xpacket begin="﻿" id="W5M0MpCehiHzreSzNTczkc9d"?>
<x:xmpmeta xmlns:x="adobe:ns:meta/" x:xmptk="Adobe XMP Core 5.6-c138 79.159824, 2016/09/14-01:09:01        ">
   <rdf:RDF xmlns:rdf="http://www.w3.org/1999/02/22-rdf-syntax-ns#">
      <rdf:Description rdf:about=""/>
   </rdf:RDF>
</x:xmpmeta>
                                                                                                    
                                                                                                    
                                                                                                    
                                                                                                    
                                                                                                    
                                                                                                    
                                                                                                    
                                                                                                    
                                                                                                    
                                                                                                    
                                                                                                    
                                                                                                    
                                                                                                    
                                                                                                    
                                                                                                    
                                                                                                    
                                                                                                    
                                                                                                    
                                                                                                    
                                                                                                    
                           
<?xpacket end="w"?></metadata>
<defs>
    <style>
      .cls-1 {
        fill: #453693;
        fill-rule: evenodd;
      }
    </style>
  </defs>
  <path id="Фигура_12" data-name="Фигура 12" class="cls-1" d="M47.014,0h1.173A13.78,13.78,0,0,1,56.035,24.39,46.906,46.906,0,0,1,80.078,37q1.8-1.812,3.607-3.623c-0.841-.881-1.744-1.7-2.567-2.6a1.936,1.936,0,0,1-.108-2.538c0.488-.587,1.066-1.093,1.588-1.647a2.784,2.784,0,0,1,1.664-1.056,2.079,2.079,0,0,1,1.8.738q3.493,3.524,7,7.036a2.79,2.79,0,0,1,1.194,2.112,2.958,2.958,0,0,1-1.192,1.932,22.455,22.455,0,0,1-1.632,1.567,1.907,1.907,0,0,1-2.409-.194c-0.885-.831-1.7-1.732-2.574-2.572q-1.839,1.849-3.681,3.7A47.173,47.173,0,0,1,72.717,110.3a46.665,46.665,0,0,1-24.705,7.5H46.576a47.12,47.12,0,0,1-34.8-77.654c-1.318-1.332-2.633-2.669-3.963-3.987C6.954,37,6.136,37.884,5.26,38.71a1.92,1.92,0,0,1-2.537.136c-0.577-.476-1.068-1.049-1.607-1.567A2.817,2.817,0,0,1,.005,35.44a2.156,2.156,0,0,1,.784-1.714q3.733-3.733,7.446-7.485a2.039,2.039,0,0,1,1.808-.706,3.074,3.074,0,0,1,1.652,1.1c0.523,0.548,1.1,1.045,1.577,1.641a1.937,1.937,0,0,1-.1,2.459c-0.827.911-1.737,1.747-2.592,2.632,1.272,1.307,2.571,2.586,3.85,3.886A46.987,46.987,0,0,1,38.75,24.392,13.765,13.765,0,0,1,47.014,0Zm-7.1,7.452A9.81,9.81,0,0,0,43.494,22.71c-0.007-2.363-.021-4.728.007-7.091a1.92,1.92,0,0,1,1.384-1.8,8.049,8.049,0,0,1,1.607-.076c1.056,0.035,2.117-.06,3.174.028a2.009,2.009,0,0,1,1.643,2.108c-0.023,2.284.007,4.569-.009,6.857A9.833,9.833,0,0,0,53.1,5.79,9.7,9.7,0,0,0,39.912,7.451Zm4.045,20.183a42.25,42.25,0,0,0-14.5,3.8,43.274,43.274,0,0,0,1.24,79.027A42.772,42.772,0,0,0,82.686,95.251,43.3,43.3,0,0,0,67.019,32.293,42.225,42.225,0,0,0,43.957,27.634ZM42.708,31.7a38.739,38.739,0,0,1,22.631,4.116,39.35,39.35,0,0,1,9.114,63.138,38.837,38.837,0,0,1-42.57,7.749A39.3,39.3,0,0,1,42.708,31.7Zm0.445,3.9a35.295,35.295,0,0,0-30.3,28.562,35.39,35.39,0,0,0,17.337,37.316A34.93,34.93,0,0,0,67.56,99.6a35.412,35.412,0,0,0-3.454-60A34.9,34.9,0,0,0,43.153,35.6Zm3.4,3.854a1.99,1.99,0,0,1,2.583.9,1.964,1.964,0,0,1-1.031,2.7A1.96,1.96,0,0,1,46.556,39.453ZM31.918,43.4a1.956,1.956,0,1,1-1.1,2.126A1.962,1.962,0,0,1,31.918,43.4Zm29.319-.023a1.964,1.964,0,0,1,2.234,3.132A1.962,1.962,0,1,1,61.237,43.38Zm-15.786,5.6a1.964,1.964,0,0,1,2.6-1.755,2.01,2.01,0,0,1,1.293,2c0.007,5.959-.007,11.916.007,17.875a5.891,5.891,0,0,1,0,11.085,15.276,15.276,0,0,1-.145,3.023,1.965,1.965,0,0,1-3.195.676c-0.953-.982-0.442-2.478-0.573-3.7a5.891,5.891,0,0,1,0-11.09C45.456,61.06,45.426,55.02,45.451,48.983ZM21.319,54.132a1.956,1.956,0,1,1-.5,3.364A1.962,1.962,0,0,1,21.319,54.132ZM71.983,54.16a1.955,1.955,0,1,1-.463,3.313A1.961,1.961,0,0,1,71.983,54.16ZM17.4,68.852a1.956,1.956,0,1,1,1.389,3.658A1.957,1.957,0,0,1,17.4,68.852Zm58.5,0.035a1.956,1.956,0,1,1-.218,3.472A1.965,1.965,0,0,1,75.9,68.887ZM21.314,83.58a1.993,1.993,0,0,1,2.345.741,1.972,1.972,0,0,1-.791,2.849A1.957,1.957,0,1,1,21.314,83.58Zm50.658,0.035a1.956,1.956,0,1,1-.328,3.4A1.961,1.961,0,0,1,71.972,83.614ZM32.393,94.267A1.926,1.926,0,0,1,34.577,95.5,1.952,1.952,0,1,1,32.393,94.267Zm28.815,0.141a1.959,1.959,0,1,1-.289,3.389A1.969,1.969,0,0,1,61.207,94.407ZM46.554,98.358a1.961,1.961,0,1,1-.926,2.6A1.959,1.959,0,0,1,46.554,98.358Z"/>
</svg>
