<svg xmlns="http://www.w3.org/2000/svg" width="104" height="87" viewBox="0 0 104 87">
  <metadata><?xpacket begin="﻿" id="W5M0MpCehiHzreSzNTczkc9d"?>
<x:xmpmeta xmlns:x="adobe:ns:meta/" x:xmptk="Adobe XMP Core 5.6-c138 79.159824, 2016/09/14-01:09:01        ">
   <rdf:RDF xmlns:rdf="http://www.w3.org/1999/02/22-rdf-syntax-ns#">
      <rdf:Description rdf:about=""/>
   </rdf:RDF>
</x:xmpmeta>
                                                                                                    
                                                                                                    
                                                                                                    
                                                                                                    
                                                                                                    
                                                                                                    
                                                                                                    
                                                                                                    
                                                                                                    
                                                                                                    
                                                                                                    
                                                                                                    
                                                                                                    
                                                                                                    
                                                                                                    
                                                                                                    
                                                                                                    
                                                                                                    
                                                                                                    
                                                                                                    
                           
<?xpacket end="w"?></metadata>
<defs>
    <style>
      .cls-1 {
        fill: #453693;
        fill-rule: evenodd;
      }
    </style>
  </defs>
  <path id="Фигура_11" data-name="Фигура 11" class="cls-1" d="M0.7,2.58A2.107,2.107,0,0,1,2.5.422c0.8-.074,1.6-0.015,2.4-0.035q48.222-.006,96.446,0a2.162,2.162,0,0,1,2.2,1.768,14.305,14.305,0,0,1,.035,1.733q0,35.555,0,71.106a8.9,8.9,0,0,1-.072,1.751,2.155,2.155,0,0,1-2.168,1.57c-2.016-.009-4.031.007-6.047,0-0.02,1.653.059,3.308-.041,4.956a4.264,4.264,0,0,1-4.147,3.7c-2.249.028-4.495-.007-6.743,0.01A4.308,4.308,0,0,1,80.17,83.04c-0.044-1.574.015-3.151-.02-4.725Q52.127,78.292,24.1,78.308c-0.02,1.5.024,3.006,0,4.506a4.292,4.292,0,0,1-2.566,3.8,7.3,7.3,0,0,1-3.147.359c-1.822-.034-3.642.046-5.461-0.024a4.266,4.266,0,0,1-3.938-4.126q-0.023-2.257,0-4.514c-2.09-.01-4.181.024-6.271-0.015a2.133,2.133,0,0,1-2.02-2.236Q0.692,39.32.7,2.58ZM4.985,4.672q-0.01,34.676,0,69.353c4.4,0.022,8.8-.1,13.2-0.054,12.7,0.1,25.4.029,38.106,0.057,9.569-.028,19.14.05,28.709-0.059,4.763-.035,9.525.065,14.29,0.059q0-34.68,0-69.358Q52.132,4.673,4.985,4.672Zm8.28,73.676c0.013,1.446-.006,2.894,0,4.341,2.181-.006,4.362,0,6.545,0q0.01-2.163.009-4.327C17.636,78.337,15.45,78.358,13.265,78.347ZM84.45,78.357c-0.011,1.441-.013,2.883,0,4.325,2.181,0.015,4.364,0,6.546.006q-0.007-2.169,0-4.341C88.816,78.361,86.633,78.334,84.45,78.357ZM10.857,9.02a4.017,4.017,0,0,1,.784-0.072q40.6,0.007,81.2,0A2.174,2.174,0,0,1,95,11.274q-0.01,28.169-.007,56.336a2.13,2.13,0,0,1-2.15,2.129q-40.6.016-81.207,0.006a2.162,2.162,0,0,1-2.364-2.129q-0.016-28.176,0-56.351A2.147,2.147,0,0,1,10.857,9.02Zm2.7,4.215q0,26.115,0,52.224,38.577,0,77.151,0V13.233Q52.131,13.246,13.557,13.235Zm4.765,7.972a7.559,7.559,0,1,1,12.76,7.985,7.938,7.938,0,0,1-3.862,2.683c-0.011,4.968.031,9.94-.019,14.909a8.136,8.136,0,0,1,4.229,3.21,7.588,7.588,0,0,1,.671,6.923,7.709,7.709,0,0,1-3.122,3.647,7.562,7.562,0,0,1-11.262-8.209A7.777,7.777,0,0,1,22.947,46.8c-0.037-4.975-.009-9.95-0.013-14.926a7.826,7.826,0,0,1-4.088-3A7.532,7.532,0,0,1,18.321,21.207Zm6.047,0.2A3.312,3.312,0,0,0,21.8,24.754a3.277,3.277,0,1,0,6.519-.62A3.3,3.3,0,0,0,24.368,21.409Zm-0.235,29.55a3.273,3.273,0,1,0,3.918,1.763A3.286,3.286,0,0,0,24.133,50.959ZM45.317,19.909A2.133,2.133,0,0,1,48.184,20c2.07,2.035,4.1,4.112,6.173,6.147a16.707,16.707,0,0,1,10.191-3.462,16.876,16.876,0,0,1,10.174,3.464c1.88-1.931,3.816-3.81,5.709-5.73A2.672,2.672,0,0,1,82.175,19.4a2.167,2.167,0,0,1,2.314,2.305c-0.035.948-.847,1.553-1.452,2.174-1.743,1.759-3.528,3.479-5.244,5.265,0.026,0.07.081,0.211,0.107,0.283A16.566,16.566,0,0,1,77.73,49.5c1.931,1.953,3.883,3.886,5.827,5.828a2.4,2.4,0,0,1,.934,1.835A2.157,2.157,0,0,1,82.6,59.279a2.133,2.133,0,0,1-1.85-.7q-2.841-2.832-5.672-5.671c-0.174-.128-0.39-0.5-0.616-0.211a16.529,16.529,0,0,1-9.933,3.307,16.766,16.766,0,0,1-10.189-3.47Q51.283,55.62,48.2,58.672a2.138,2.138,0,0,1-3.017-3.029c2.04-2.055,4.1-4.088,6.136-6.139a16.569,16.569,0,0,1-3.437-11.281,16.839,16.839,0,0,1,3.426-9.044c-2.048-2.057-4.112-4.1-6.154-6.159A2.136,2.136,0,0,1,45.317,19.909Zm17.991,7.117A12.437,12.437,0,1,0,73.161,30.5,12.277,12.277,0,0,0,63.308,27.026Zm-0.422,4.391A8.081,8.081,0,1,1,56.93,36.5,8.14,8.14,0,0,1,62.885,31.416Zm0.422,4.312a3.821,3.821,0,1,0,3.814.822A3.848,3.848,0,0,0,63.308,35.729Z"/>
</svg>
