<svg xmlns="http://www.w3.org/2000/svg" width="267" height="77" viewBox="0 0 267 77">
  <metadata><?xpacket begin="﻿" id="W5M0MpCehiHzreSzNTczkc9d"?>
<x:xmpmeta xmlns:x="adobe:ns:meta/" x:xmptk="Adobe XMP Core 5.6-c138 79.159824, 2016/09/14-01:09:01        ">
   <rdf:RDF xmlns:rdf="http://www.w3.org/1999/02/22-rdf-syntax-ns#">
      <rdf:Description rdf:about=""/>
   </rdf:RDF>
</x:xmpmeta>
                                                                                                    
                                                                                                    
                                                                                                    
                                                                                                    
                                                                                                    
                                                                                                    
                                                                                                    
                                                                                                    
                                                                                                    
                                                                                                    
                                                                                                    
                                                                                                    
                                                                                                    
                                                                                                    
                                                                                                    
                                                                                                    
                                                                                                    
                                                                                                    
                                                                                                    
                                                                                                    
                           
<?xpacket end="w"?></metadata>
<defs>
    <style>
      .cls-1 {
        fill: #453693;
        fill-rule: evenodd;
      }
    </style>
  </defs>
  <path id="_100_" data-name="&gt;100%" class="cls-1" d="M0.287,11.384V27.491l29.24,11.087L0.287,49.666V65.773l46.992-20.4V31.78ZM71.613,1.97L52.5,8.873,56.576,23.2l12.949-3.556v55.54H86.233V1.97H71.613Zm54.826,74.681c18.9,0,29.762-15.48,29.762-38.073S145.34,0.506,126.439.506,96.677,15.986,96.677,38.579,107.538,76.651,126.439,76.651Zm0-16.317c-8.772,0-13.053-7.635-13.053-21.756s4.281-21.756,13.053-21.756,13.053,7.636,13.053,21.756S135.211,60.334,126.439,60.334ZM192.23,76.651c18.9,0,29.761-15.48,29.761-38.073S211.131,0.506,192.23.506s-29.762,15.48-29.762,38.073S173.328,76.651,192.23,76.651Zm0-16.317c-8.772,0-13.054-7.635-13.054-21.756s4.282-21.756,13.054-21.756,13.053,7.636,13.053,21.756S201,60.334,192.23,60.334Zm44.74-5.881a9.377,9.377,0,0,0,9.575-9.424,9.277,9.277,0,0,0-9.575-9.424A9.426,9.426,0,1,0,236.97,54.454Zm-5.037,14.635,3.653,2.162L260.6,43.477l-3.653-2.107Zm4.982-21.01a3.05,3.05,0,1,1,2.988-3.049A2.989,2.989,0,0,1,236.915,48.078Zm19.814,27.774a9.426,9.426,0,1,0-9.631-9.424A9.377,9.377,0,0,0,256.729,75.852Zm-0.055-6.375a3.05,3.05,0,1,1,2.988-3.049A2.989,2.989,0,0,1,256.674,69.477Z"/>
</svg>
