<svg xmlns="http://www.w3.org/2000/svg" xmlns:xlink="http://www.w3.org/1999/xlink" width="222" height="222" viewBox="0 0 222 222">
  <metadata><?xpacket begin="﻿" id="W5M0MpCehiHzreSzNTczkc9d"?>
<x:xmpmeta xmlns:x="adobe:ns:meta/" x:xmptk="Adobe XMP Core 5.6-c138 79.159824, 2016/09/14-01:09:01        ">
   <rdf:RDF xmlns:rdf="http://www.w3.org/1999/02/22-rdf-syntax-ns#">
      <rdf:Description rdf:about=""/>
   </rdf:RDF>
</x:xmpmeta>
                                                                                                    
                                                                                                    
                                                                                                    
                                                                                                    
                                                                                                    
                                                                                                    
                                                                                                    
                                                                                                    
                                                                                                    
                                                                                                    
                                                                                                    
                                                                                                    
                                                                                                    
                                                                                                    
                                                                                                    
                                                                                                    
                                                                                                    
                                                                                                    
                                                                                                    
                                                                                                    
                           
<?xpacket end="w"?></metadata>
<defs>
    <style>
      .cls-1 {
        fill: #f5f5f5;
      }

      .cls-2 {
        fill-rule: evenodd;
        fill: url(#linear-gradient);
      }
    </style>
    <linearGradient id="linear-gradient" x1="111" y1="165" x2="111" y2="45" gradientUnits="userSpaceOnUse">
      <stop offset="0" stop-color="#4a3796"/>
      <stop offset="1" stop-color="#c147d1"/>
    </linearGradient>
  </defs>
  <circle id="Эллипс_2_копия_2" data-name="Эллипс 2 копия 2" class="cls-1" cx="111" cy="111" r="111"/>
  <path id="Фигура_10_копия" data-name="Фигура 10 копия" class="cls-2" d="M110.843,45h0.544c3.923,0.225,7.4,2.508,10.071,5.25a29.461,29.461,0,0,1,8.013,20.525,56.418,56.418,0,0,1-.928,11.85c6.337,0.173,12.675.269,19.012,0.478a103.66,103.66,0,0,1,10.847.773,15.081,15.081,0,0,1,9.957,5.738A13.4,13.4,0,0,1,171,96.446v2.076a14.078,14.078,0,0,1-3.279,9.4,14.582,14.582,0,0,1,1.547,8.109,18.434,18.434,0,0,1-5.1,11.2,14.618,14.618,0,0,1,.281,9.162c-0.855,3.063-1.929,6.19-4.078,8.606a14.578,14.578,0,0,1-2.381,2.133,12.974,12.974,0,0,1,.028,6.129,16.655,16.655,0,0,1-4.51,8.072A15.07,15.07,0,0,1,143.726,165h-22.8a111.829,111.829,0,0,1-16.249-1.655c-3.712-.621-7.362-1.554-11.03-2.388-3.38-.792-6.767-1.566-10.13-2.431A11.406,11.406,0,0,1,74.28,165H61.657a11.4,11.4,0,0,1-8.023-4.03A11.563,11.563,0,0,1,51,154.546V93.184a11.465,11.465,0,0,1,2.517-6.509,11.24,11.24,0,0,1,8.492-4.165c3.2-.028,6.4,0,9.6-0.011a18.844,18.844,0,0,1,3.816.2,12.755,12.755,0,0,1,5.379,2.625c1.713-.828,3.445-1.632,5.079-2.616a26.015,26.015,0,0,0,9.049-8.777A34.719,34.719,0,0,0,99.75,56.244,11.34,11.34,0,0,1,110.843,45Zm-2.367,8.475a4,4,0,0,0-1.233,3.014c-0.138,8.049-2.262,16.214-6.9,22.866A34.882,34.882,0,0,1,83.573,92.1,4.033,4.033,0,0,0,81,95.856q0,25.43.021,50.862a4.926,4.926,0,0,0,.293,2.268,4.012,4.012,0,0,0,2.728,1.939c3.635,0.975,7.308,1.793,10.971,2.657,3.912,0.894,7.8,1.892,11.772,2.515a97.1,97.1,0,0,0,16.4,1.4q9.957,0,19.915,0a7.9,7.9,0,0,0,5.341-1.68,8.9,8.9,0,0,0,2.164-3.94,4.725,4.725,0,0,0-.5-4.174,3.689,3.689,0,0,0-3-1.444c-2.046-.028-4.1.007-6.143-0.014a1.87,1.87,0,1,1,.014-3.74c2.2-.017,4.392.006,6.586-0.012,2.278-.061,4.746-0.34,6.581-1.823,1.721-1.407,2.276-3.66,2.914-5.682,0.5-1.735.815-3.733-.089-5.391-0.837-1.488-2.642-2.023-4.247-2.081-2.665-.045-5.332,0-8-0.023a1.87,1.87,0,0,1,0-3.739c3.058-.018,6.119.01,9.18-0.011a7.491,7.491,0,0,0,4.838-1.7,9.365,9.365,0,0,0,2.758-5.077,7.149,7.149,0,0,0-.729-5.974,5.606,5.606,0,0,0-4.523-2.231c-2.592-.04-5.184,0-7.774-0.021a1.87,1.87,0,0,1-.005-3.739c2.588-.016,5.178,0,7.765-0.009a8.989,8.989,0,0,0,5.147-1.373,5,5,0,0,0,2-3.764,12.254,12.254,0,0,0-.241-4.809,5.575,5.575,0,0,0-3.214-3.333c-3.26-1.251-6.8-1.254-10.239-1.42C139.3,89.98,128.9,90.02,118.5,90c0.956-2.906,1.978-5.8,2.658-8.787a37.972,37.972,0,0,0,.79-7.852,34.431,34.431,0,0,0-.3-6.693,21.9,21.9,0,0,0-5.815-11.512,9.666,9.666,0,0,0-3.827-2.5A3.685,3.685,0,0,0,108.476,53.474Zm-46.9,36.584a3.756,3.756,0,0,0-3.07,3.677q-0.011,29.528,0,59.059a5.829,5.829,0,0,0,.269,2.353,3.75,3.75,0,0,0,3.457,2.35q5.642,0.007,11.285,0a3.759,3.759,0,0,0,3.738-3.731q0.01-29.541,0-59.083a5.241,5.241,0,0,0-.41-2.635A3.793,3.793,0,0,0,73.268,90C69.37,90.041,65.466,89.919,61.572,90.057Zm5.407,52.512a5.625,5.625,0,1,1-4.151,3.068A5.617,5.617,0,0,1,66.98,142.569Zm0.276,3.78a1.877,1.877,0,1,0,2.435,1.306A1.887,1.887,0,0,0,67.256,146.349Z"/>
</svg>
