<svg xmlns="http://www.w3.org/2000/svg" width="308" height="39" viewBox="0 0 308 39">
  <metadata><?xpacket begin="﻿" id="W5M0MpCehiHzreSzNTczkc9d"?>
<x:xmpmeta xmlns:x="adobe:ns:meta/" x:xmptk="Adobe XMP Core 5.6-c138 79.159824, 2016/09/14-01:09:01        ">
   <rdf:RDF xmlns:rdf="http://www.w3.org/1999/02/22-rdf-syntax-ns#">
      <rdf:Description rdf:about=""/>
   </rdf:RDF>
</x:xmpmeta>
                                                                                                    
                                                                                                    
                                                                                                    
                                                                                                    
                                                                                                    
                                                                                                    
                                                                                                    
                                                                                                    
                                                                                                    
                                                                                                    
                                                                                                    
                                                                                                    
                                                                                                    
                                                                                                    
                                                                                                    
                                                                                                    
                                                                                                    
                                                                                                    
                                                                                                    
                                                                                                    
                           
<?xpacket end="w"?></metadata>
<defs>
    <style>
      .cls-1 {
        fill: #453693;
        fill-rule: evenodd;
      }

      .cls-2 {
        fill: none;
        stroke: #453693;
        stroke-width: 1px;
      }
    </style>
  </defs>
  <path id="MetaTrader_5" data-name="MetaTrader 5" class="cls-1" d="M33.838,3.37h-10.3l-4.8,23.272L13.586,3.37H3.337L0.762,37.684H8.684L9.279,24.364q0.149-3.119.149-5.991,0-3.812-.3-8.12l5.645,23.817H22.45l5.3-23.817Q27.6,12.828,27.6,15.7q0,3.764.247,8.566l0.594,13.418h7.972Zm30.2,20.648q0-6.338-3.218-9.9T51.911,10.55a11.332,11.332,0,0,0-10.844,6.907,17.376,17.376,0,0,0-1.436,7.2q0,6.339,3.417,10.1t9.8,3.763A16.059,16.059,0,0,0,63.1,34.861L59.882,30.5a15.806,15.806,0,0,1-3.218,1.758,8.5,8.5,0,0,1-3.07.569,5.921,5.921,0,0,1-4.11-1.337Q48,30.157,47.6,26.84h16.29a23.141,23.141,0,0,0,.149-2.822h0Zm-7.675-1.882H47.6a9.5,9.5,0,0,1,1.362-4.9,3.7,3.7,0,0,1,3.144-1.486q4.159,0,4.258,6.041v0.347Zm25.945,9.358a5.742,5.742,0,0,1-2.822.842,2.2,2.2,0,0,1-1.882-.792,4.458,4.458,0,0,1-.594-2.624V16.838h5.2l0.842-5.447H77.014V4.806L69.191,5.7v5.694H65.477v5.447h3.714V29.019q0,9.458,8.615,9.507a13.746,13.746,0,0,0,3.788-.545,11.3,11.3,0,0,0,3.342-1.535Zm25.549-1.436v-10.2q0-4.654-2.624-6.982T96.968,10.55a25.95,25.95,0,0,0-4.828.5,30.194,30.194,0,0,0-5.075,1.436l1.782,5.149a32.118,32.118,0,0,1,3.763-1.015,16.1,16.1,0,0,1,3.119-.371,5.32,5.32,0,0,1,3.466.866,4.128,4.128,0,0,1,.99,3.194v1.139H97.513q-5.992,0-9.16,2.278a7.609,7.609,0,0,0-3.169,6.586,7.94,7.94,0,0,0,2.327,5.942,8.536,8.536,0,0,0,6.239,2.278q5.348,0,7.923-3.961a5.688,5.688,0,0,0,2.376,2.748,9.651,9.651,0,0,0,3.962,1.065l1.634-5.1a2.539,2.539,0,0,1-1.362-1.04,4.329,4.329,0,0,1-.421-2.179h0ZM96.027,32.93a2.945,2.945,0,0,1-2.253-.867,3.433,3.433,0,0,1-.817-2.451,3.351,3.351,0,0,1,1.312-2.921,6.863,6.863,0,0,1,3.986-.941h1.931v4.654a4.608,4.608,0,0,1-4.159,2.525h0ZM111.475,3.37V9.609h8.863V37.684h8.121V9.609h8.467l0.792-6.239H111.475Zm42.137,7.279a6.083,6.083,0,0,0-4.085,1.56,9.328,9.328,0,0,0-2.7,4.283l-0.643-5.1h-6.833V37.684h7.823V24.661a12.473,12.473,0,0,1,1.906-4.828,4.162,4.162,0,0,1,3.54-1.609,11.072,11.072,0,0,1,2.377.347L156.236,11a9.37,9.37,0,0,0-2.624-.347h0Zm24.757,19.41v-10.2q0-4.654-2.624-6.982t-8.269-2.327a25.949,25.949,0,0,0-4.828.5,30.183,30.183,0,0,0-5.075,1.436l1.782,5.149a32.184,32.184,0,0,1,3.763-1.015,16.1,16.1,0,0,1,3.12-.371,5.321,5.321,0,0,1,3.466.866,4.128,4.128,0,0,1,.99,3.194v1.139H168.02q-5.991,0-9.16,2.278a7.609,7.609,0,0,0-3.169,6.586,7.94,7.94,0,0,0,2.327,5.942,8.538,8.538,0,0,0,6.239,2.278q5.347,0,7.923-3.961a5.688,5.688,0,0,0,2.376,2.748,9.651,9.651,0,0,0,3.962,1.065l1.634-5.1a2.539,2.539,0,0,1-1.362-1.04,4.329,4.329,0,0,1-.421-2.179h0ZM166.535,32.93a2.945,2.945,0,0,1-2.253-.867,3.432,3.432,0,0,1-.817-2.451,3.351,3.351,0,0,1,1.312-2.921,6.864,6.864,0,0,1,3.986-.941h1.931v4.654a4.608,4.608,0,0,1-4.159,2.525h0ZM200.353,0.1V13.025a8.462,8.462,0,0,0-6.239-2.476,9.308,9.308,0,0,0-5.62,1.783,11.463,11.463,0,0,0-3.788,4.951,18.322,18.322,0,0,0-1.337,7.18q0,6.536,2.55,10.3a8.433,8.433,0,0,0,7.452,3.763,8.708,8.708,0,0,0,7.477-3.912l0.4,3.07h6.932V0.944ZM195.8,32.782A3.533,3.533,0,0,1,192.6,30.95q-1.115-1.831-1.114-6.437,0-4.208,1.287-6.239a3.935,3.935,0,0,1,3.466-2.03,4.412,4.412,0,0,1,2.2.545,7.058,7.058,0,0,1,1.906,1.684V29.811q-1.833,2.971-4.555,2.971h0Zm41.443-8.764q0-6.338-3.219-9.9T225.11,10.55a11.333,11.333,0,0,0-10.844,6.907,17.373,17.373,0,0,0-1.436,7.2q0,6.339,3.417,10.1t9.8,3.763A16.058,16.058,0,0,0,236.3,34.861L233.082,30.5a15.793,15.793,0,0,1-3.219,1.758,8.5,8.5,0,0,1-3.07.569,5.919,5.919,0,0,1-4.109-1.337Q221.2,30.157,220.8,26.84h16.29a23.131,23.131,0,0,0,.149-2.822h0Zm-7.675-1.882H220.8a9.5,9.5,0,0,1,1.362-4.9,3.7,3.7,0,0,1,3.144-1.486q4.159,0,4.258,6.041v0.347Zm26.341-11.487a6.086,6.086,0,0,0-4.085,1.56,9.335,9.335,0,0,0-2.7,4.283l-0.644-5.1h-6.833V37.684h7.823V24.661a12.457,12.457,0,0,1,1.907-4.828,4.159,4.159,0,0,1,3.54-1.609,11.088,11.088,0,0,1,2.377.347L258.532,11a9.382,9.382,0,0,0-2.625-.347h0Zm37.631-6.437h-20.5V22.285h5.3a9.946,9.946,0,0,1,2.079-.916,6.926,6.926,0,0,1,1.931-.272q4.7,0,4.7,5.6A6.281,6.281,0,0,1,285.64,31.1a5.143,5.143,0,0,1-3.986,1.535,8.243,8.243,0,0,1-6.486-3.218l-4.358,4.06a14.055,14.055,0,0,0,11.141,5.051,15.362,15.362,0,0,0,6.908-1.485,10.8,10.8,0,0,0,4.6-4.184,11.9,11.9,0,0,0,1.61-6.214,12.939,12.939,0,0,0-1.238-5.843,8.833,8.833,0,0,0-3.417-3.763,9.551,9.551,0,0,0-4.951-1.287,11.547,11.547,0,0,0-4.952,1.089V9.807h12.131Z"/>
  <path id="R" class="cls-1" d="M304.265,9.056h1.51l-1.268-2.127a1.95,1.95,0,0,0,.715-0.579,1.383,1.383,0,0,0,.223-0.807,1.383,1.383,0,0,0-.531-1.2,2.729,2.729,0,0,0-1.61-.389h-1.767v5.1h1.356V7.179h0.374Zm-1.372-4.151h0.382a0.929,0.929,0,0,1,.583.154,0.582,0.582,0,0,1,.194.484,0.626,0.626,0,0,1-.7.711h-0.455V4.905Z"/>
  <circle id="Эллипс_3" data-name="Эллипс 3" class="cls-2" cx="303.5" cy="6.5" r="4.5"/>
</svg>
