<svg id="Слой_1" data-name="Слой 1" xmlns="http://www.w3.org/2000/svg" viewBox="0 0 110 34.1"><defs><style>.cls-1{fill:none;stroke:#fff;stroke-miterlimit:10;stroke-width:2px;}.cls-2{fill:#fff;}.cls-3{isolation:isolate;}</style></defs><title>logo</title><path class="cls-1" d="M109.8,2.3H82.1a0.35,0.35,0,0,0-.4.3L76,12.8V2.8a0.47,0.47,0,0,0-.5-0.5H47.8a0.48,0.48,0,0,0-.5.2L41.6,12.7V2.7a0.47,0.47,0,0,0-.5-0.5H13.4a0.35,0.35,0,0,0-.4.3L2.4,21.4c0,0.1-.1.2-0.1,0.3v12a0.47,0.47,0,0,0,.5.5H30.5a0.55,0.55,0,0,0,.5-0.3l5.7-10.2v10a0.47,0.47,0,0,0,.5.5H64.9a0.83,0.83,0,0,0,.5,0l5.7-10.4v10a0.47,0.47,0,0,0,.5.5H99.3a0.35,0.35,0,0,0,.4-0.3l10.5-18.9c0-.1.1-0.2,0.1-0.3V2.8A0.47,0.47,0,0,0,109.8,2.3Z" transform="translate(-1.3 -1.2)"/><polygon class="cls-2" points="23.2 14.1 22 14.1 22 20 23.2 20 23.2 23.5 17.1 23.5 17.1 20 18.3 20 18.3 14.1 17.1 14.1 17.1 10.5 23.2 10.5 23.2 14.1"/><path class="cls-2" d="M60.6,18a3,3,0,0,0,1.3-2.6c0-2.4-1.6-3.7-4.5-3.7H52.2v13h5.5c2.9,0,4.5-1.5,4.6-3.8A3.24,3.24,0,0,0,60.6,18Zm-4.7-3.2h1.3a0.9,0.9,0,0,1,.9.9v0.1a0.79,0.79,0,0,1-.8.8H55.9V14.8Zm1.5,6.7H55.8V19.6h1.8a0.89,0.89,0,0,1,.8,1A1,1,0,0,1,57.4,21.5Z" transform="translate(-1.3 -1.2)"/><g class="cls-3"><path class="cls-2" d="M84.3,18.5c0-3.9,3-6.6,7-6.6a6,6,0,0,1,5.8,3.7l-3.3,1.5a2.61,2.61,0,0,0-2.5-1.8,3.08,3.08,0,0,0-3.1,3.2,2.92,2.92,0,0,0,5.6,1.4l3.3,1.5A6.21,6.21,0,0,1,91.3,25C87.3,25,84.3,22.4,84.3,18.5Z" transform="translate(-1.3 -1.2)"/></g></svg>