<?xml version="1.0" encoding="utf-8"?>
<!-- Generator: Adobe Illustrator 19.2.1, SVG Export Plug-In . SVG Version: 6.00 Build 0)  -->
<svg version="1.1" id="Слой_1" xmlns="http://www.w3.org/2000/svg" xmlns:xlink="http://www.w3.org/1999/xlink" x="0px" y="0px"
	 viewBox="0 0 60 60" style="enable-background:new 0 0 60 60;" xml:space="preserve">
<style type="text/css">
	.st0{fill:#FFFFFF;}
</style>
<g>
	<path class="st0" d="M30,0C13.4,0,0,13.4,0,30s13.4,30,30,30s30-13.4,30-30S46.6,0,30,0 M46.9,13.9l-6.7,31.5
		c-0.1,0.6-0.8,0.9-1.4,0.6l-10.3-6.9L23,44.3c-0.5,0.4-1.2,0.2-1.4-0.4L18,32.7l-9.5-3.9c-0.7-0.3-0.7-1.5,0-1.8l37.1-14.1
		C46.3,12.7,47,13.2,46.9,13.9"/>
	<polyline class="st0" points="22.7,40.6 23.3,34.8 40.1,18.5 19.9,31.8 	"/>
</g>
</svg>
