<svg xmlns="http://www.w3.org/2000/svg" width="55.719" height="45" viewBox="0 0 55.719 45">
  <metadata><?xpacket begin="﻿" id="W5M0MpCehiHzreSzNTczkc9d"?>
<x:xmpmeta xmlns:x="adobe:ns:meta/" x:xmptk="Adobe XMP Core 5.6-c138 79.159824, 2016/09/14-01:09:01        ">
   <rdf:RDF xmlns:rdf="http://www.w3.org/1999/02/22-rdf-syntax-ns#">
      <rdf:Description rdf:about=""/>
   </rdf:RDF>
</x:xmpmeta>
                                                                                                    
                                                                                                    
                                                                                                    
                                                                                                    
                                                                                                    
                                                                                                    
                                                                                                    
                                                                                                    
                                                                                                    
                                                                                                    
                                                                                                    
                                                                                                    
                                                                                                    
                                                                                                    
                                                                                                    
                                                                                                    
                                                                                                    
                                                                                                    
                                                                                                    
                                                                                                    
                           
<?xpacket end="w"?></metadata>
<defs>
    <style>
      .cls-1 {
        fill: #000;
        fill-rule: evenodd;
      }
    </style>
  </defs>
  <path id="_0_" data-name="0%" class="cls-1" d="M398.688,442.19c10.527,0,16.417-9.039,16.417-22.5s-5.89-22.5-16.417-22.5-16.417,9.039-16.417,22.5S388.161,442.19,398.688,442.19Zm0-3.179c-8.146,0-13.034-7.107-13.034-19.324s4.888-19.324,13.034-19.324,13.033,7.107,13.033,19.324S406.834,439.011,398.688,439.011Zm26.225-9.839a4.451,4.451,0,1,0-4.592-4.449A4.409,4.409,0,0,0,424.913,429.172Zm0-1.373a3.076,3.076,0,1,1,3.122-3.076A3.006,3.006,0,0,1,424.913,427.8Zm-3.451,11.018,0.99,0.567,14.287-15.945-1.02-.567Zm11.946,3.015a4.451,4.451,0,1,0-4.593-4.449A4.444,4.444,0,0,0,433.408,441.832Zm0-1.373a3.076,3.076,0,1,1,3.121-3.076A3.006,3.006,0,0,1,433.408,440.459Z" transform="translate(-382.281 -397.188)"/>
</svg>
