<?xml version="1.0" encoding="utf-8"?>
<!-- Generator: Adobe Illustrator 22.0.1, SVG Export Plug-In . SVG Version: 6.00 Build 0)  -->
<svg version="1.1" id="Слой_1" xmlns="http://www.w3.org/2000/svg" xmlns:xlink="http://www.w3.org/1999/xlink" x="0px" y="0px"
	 viewBox="0 0 108 32" style="enable-background:new 0 0 108 32;" xml:space="preserve">
<style type="text/css">
	.st0{fill:#FFFFFF;}
	.st1{fill:#261E53;}
	.st2{enable-background:new    ;}
</style>
<title>logo</title>
<path class="st0" d="M107.5,0H79.8c-0.2,0-0.4,0.1-0.4,0.3l-5.7,10.2v-10c0-0.3-0.2-0.5-0.5-0.5H45.5c-0.2,0-0.4,0-0.5,0.2
	l-5.7,10.2v-10c0-0.3-0.2-0.5-0.5-0.5l0,0H11.1c-0.2,0-0.4,0.1-0.4,0.3L0.1,19.1c0,0.1-0.1,0.2-0.1,0.3v12c0,0.3,0.2,0.5,0.5,0.5
	l0,0h27.7c0.2,0,0.4-0.1,0.5-0.3l5.7-10.2v10c0,0.3,0.2,0.5,0.5,0.5l0,0h27.7c0.2,0,0.4,0.1,0.5,0l5.7-10.4v10
	c0,0.3,0.2,0.5,0.5,0.5H97c0.2,0,0.4-0.1,0.4-0.3l10.5-18.9c0-0.1,0.1-0.2,0.1-0.3v-12C108,0.2,107.8,0,107.5,0z"/>
<polygon class="st1" points="22.2,13 21,13 21,18.9 22.2,18.9 22.2,22.4 16.1,22.4 16.1,18.9 17.3,18.9 17.3,13 16.1,13 16.1,9.4 
	22.2,9.4 "/>
<path class="st1" d="M55.4,22.4h-5.5v-13h5.2c2.9,0,4.5,1.3,4.5,3.7c0,1-0.4,2-1.3,2.6c1.1,0.6,1.7,1.7,1.7,2.9
	C59.9,20.9,58.3,22.4,55.4,22.4L55.4,22.4z"/>
<path class="st0" d="M55.8,13.4c0-0.5-0.4-0.9-0.9-0.9h-0.1h-1.2v1.8H55c0.4,0,0.8-0.3,0.8-0.8C55.8,13.5,55.8,13.5,55.8,13.4z
	 M55.3,17.3h-1.8v1.9h1.6c0.5,0,1-0.4,1-0.9C56.2,17.8,55.8,17.4,55.3,17.3L55.3,17.3z"/>
<g class="st2">
	<path class="st1" d="M82,16.2c0-3.9,3-6.6,7-6.6c3.3,0,5,1.9,5.8,3.7l-3.3,1.5c-0.3-1-1.3-1.8-2.5-1.8c-1.8,0-3.1,1.4-3.1,3.2
		c0,1.8,1.2,3.2,3.1,3.2c1.1,0,2.1-0.9,2.5-1.8l3.3,1.5c-0.7,1.7-2.4,3.7-5.8,3.7C85,22.7,82,20.1,82,16.2z"/>
</g>
</svg>
